<?xml version="1.0" encoding="UTF-8"?>
<svg width="149px" height="14px" viewBox="0 0 149 14" version="1.1" xmlns="http://www.w3.org/2000/svg" xmlns:xlink="http://www.w3.org/1999/xlink">
    <!-- Generator: Sketch 47.1 (45422) - http://www.bohemiancoding.com/sketch -->
    <title>logo-aurasens-wordmark</title>
    <desc>Created with Sketch.</desc>
    <defs></defs>
    <g id="Symbols" stroke="none" stroke-width="1" fill="none" fill-rule="evenodd">
        <g id="top-nav-b" transform="translate(0.000000, -13.000000)" fill="#EBCCC2">
            <g id="top-nav-2">
                <g id="logo-aurasens-wordmark" transform="translate(0.000000, 13.000000)">
                    <path d="M141.19687,3.41437895 C141.19687,5.15185263 142.311826,6.45201053 144.667116,7.28943158 C146.505994,7.93748421 147.333853,8.79737895 147.333853,10.1800632 C147.333853,11.6463789 146.155663,12.6308 144.523568,12.6308 C142.994682,12.6308 141.713646,12.0656421 140.576521,11.1858526 L140.969736,12.8400632 C141.691477,13.3646947 142.931448,13.8668526 144.46106,13.8668526 C147.08455,13.8668526 148.73845,12.3578 148.73845,10.0536947 C148.73845,7.89658947 147.313138,6.76553684 144.957485,5.86474737 C143.283597,5.21595789 142.539687,4.39916842 142.539687,3.33037895 C142.539687,2.30285263 143.407158,1.21490526 145.060331,1.21490526 C146.072441,1.21490526 147.08455,1.61243158 147.601326,1.98969474 L147.890968,0.816642105 C147.354204,0.439747368 146.301029,0.0414842105 145.101397,0.0414842105 C142.436841,0.0414842105 141.19687,1.75906316 141.19687,3.41437895" id="Fill-1"></path>
                    <path d="M31.9668234,0.271268421 L31.9668234,8.88200526 C31.9668234,11.2067421 30.5611356,12.6104263 28.1847673,12.6104263 C25.7880478,12.6104263 24.4045283,11.2067421 24.4045283,8.88200526 L24.4045283,0.271268421 L23.0191917,0.271268421 L23.0191917,9.00653158 C23.0191917,12.0449 25.1070088,13.8667421 28.1644161,13.8667421 C31.2232771,13.8667421 33.3092771,12.0449 33.3092771,9.00653158 L33.3092771,0.271268421 L31.9668234,0.271268421 Z" id="Fill-4"></path>
                    <path d="M43.7989134,0.271268421 L43.7989134,13.6364789 L45.1831598,13.6364789 L45.1831598,7.52032105 L47.4559549,7.52032105 L51.8572695,13.6364789 L53.46865,13.6364789 L48.8405646,7.31032105 C50.3069427,6.89179474 51.4226256,5.63474211 51.4226256,3.89579474 C51.4226256,1.61268947 49.5633963,0.271268421 47.559528,0.271268421 L43.7989134,0.271268421 Z M45.1831598,1.48705789 L47.3316671,1.48705789 C48.7991354,1.48705789 50.0183915,2.38747895 50.0183915,3.89579474 C50.0183915,5.42511053 48.7991354,6.30453158 47.4137988,6.30453158 L45.1831598,6.30453158 L45.1831598,1.48705789 Z" id="Fill-6"></path>
                    <path d="M84.6191715,3.41437895 C84.6191715,5.15185263 85.7352178,6.45201053 88.0908715,7.28943158 C89.9301129,7.93748421 90.7568812,8.79737895 90.7568812,10.1800632 C90.7568812,11.6463789 89.5783276,12.6308 87.9465959,12.6308 C86.4173471,12.6308 85.1370373,12.0656421 83.9995495,11.1858526 L84.3916739,12.8400632 C85.1159593,13.3646947 86.3548398,13.8668526 87.8840885,13.8668526 C90.5083056,13.8668526 92.1611154,12.3578 92.1611154,10.0536947 C92.1611154,7.89658947 90.7350763,6.76553684 88.3801495,5.86474737 C86.7066251,5.21595789 85.9619885,4.39916842 85.9619885,3.33037895 C85.9619885,2.30285263 86.8305495,1.21490526 88.4837227,1.21490526 C89.4958324,1.21490526 90.5083056,1.61243158 91.0250812,1.98969474 L91.3143593,0.816642105 C90.7761422,0.439747368 89.7236934,0.0414842105 88.525152,0.0414842105 C85.859869,0.0414842105 84.6191715,1.75906316 84.6191715,3.41437895" id="Fill-8"></path>
                    <polygon id="Fill-11" points="101.445342 0.2723 101.445342 13.6367737 109.989583 13.6367737 109.989583 12.4213526 102.830315 12.4213526 102.830315 7.51987895 108.27463 7.51987895 108.27463 6.30482632 102.830315 6.30482632 102.830315 1.48698421 109.266025 1.48698421 109.266025 0.2723"></polygon>
                    <path d="M129.904051,0.271268421 L129.904051,7.39432105 C129.904051,8.52500526 129.904051,9.73968947 129.945117,10.9344789 L129.904051,10.9547421 C129.035853,9.86568947 127.818051,8.41963684 126.907334,7.37221579 L120.793246,0.271268421 L119.820749,0.271268421 L119.820749,13.6364789 L121.205358,13.6364789 L121.205358,6.26326842 C121.205358,5.04821579 121.205358,3.79079474 121.164292,2.55474211 L121.205358,2.53484737 C122.113895,3.64416316 123.3128,5.08984737 124.428846,6.38853158 L130.916888,13.9293737 L131.289024,13.9293737 L131.289024,0.271268421 L129.904051,0.271268421 Z" id="Fill-12"></path>
                    <path d="M6.22754585,10.8712947 C6.22754585,11.6217684 6.82754341,12.2300316 7.5670922,12.2300316 C8.30773122,12.2300316 8.90700195,11.6217684 8.90700195,10.8712947 C8.90700195,10.1211895 8.30773122,9.51292632 7.5670922,9.51292632 C6.82754341,9.51292632 6.22754585,10.1211895 6.22754585,10.8712947" id="Fill-14"></path>
                    <path d="M7.21596098,0 L0,13.6367368 L1.36389512,13.6367368 L7.43728049,2.51631579 C8.26913659,3.95278947 13.8995195,13.6367368 13.8995195,13.6367368 L15.3048439,13.6367368 L7.65096829,0 L7.21596098,0 Z" id="Fill-16"></path>
                    <path d="M67.0922288,10.8712947 C67.0922288,11.6217684 67.6925898,12.2300316 68.432502,12.2300316 C69.1727776,12.2300316 69.7720483,11.6217684 69.7720483,10.8712947 C69.7720483,10.1211895 69.1727776,9.51292632 68.432502,9.51292632 C67.6925898,9.51292632 67.0922288,10.1211895 67.0922288,10.8712947" id="Fill-19"></path>
                    <path d="M68.080971,0 L60.8653734,13.6367368 L62.2281783,13.6367368 L68.3026539,2.51631579 C69.1334198,3.95278947 74.7652563,13.6367368 74.7652563,13.6367368 L76.1705807,13.6367368 L68.5156149,0 L68.080971,0 Z" id="Fill-21"></path>
                </g>
            </g>
        </g>
    </g>
</svg>